#!OML:ASF F:\VICON\USERDATA\INSTALL\rory3\rory3.ASF
:FULLY-SPECIFIED
:DEGREES
53
root 0.47601712702072285 16.45169477475292 -17.62497576599219 22.18473121958693 -1.9309305366231442 -2.3321901523473887
lfemur -42.16355974382235 9.80583295113427 -18.882756055389365
ltibia 44.92239624868117
lfoot -15.832386302454491 3.1705800347274344
ltoes -15.592254921450238
rfemur -54.64429772017898 -2.709948048354312 22.093967061685646
rtibia 54.286034104194165
rfoot -21.06484853259351 -2.9021088997233377
rtoes 0.8754091155828423
lowerback 13.260930632357905 0.15045730891402284 0.4187413442351937
upperback 3.6588662404422387 0.23644077642859102 1.6567371289546475
thorax -1.2385432497064643 0.10326182600934372 1.5400873083413251
lowerneck -17.47238279749249 0.9389464541223782 -1.8452744214149066
upperneck 13.194811009943741 1.9032945818834919 -1.8777773947411298
head 6.980669253252043 0.7466479228625624 0.024061554829798826
lclavicle 5.763778422719936e-16 -3.099041800264986e-16
lhumerus -23.635346237257433 1.1476926627034556 86.37742960801145
lradius 18.680584585456806
lwrist 7.042444909674815
lhand -25.306873098842036 -4.301180330798722
lfingers 7.125019999999998
lthumb 0.915802016666041 25.34570486970476
rclavicle 5.755447507655799e-16 -3.117187902737112e-16
rhumerus -22.204049322649933 -18.0845785226497 -81.34579650341747
rradius 20.554961367922118
rwrist 40.784289452270826
rhand -19.264333789235057 -25.412740053568218
rfingers 7.125019999999998
rthumb 6.8524899751890525 -55.30183222839335
54
root 0.4705511948177067 16.201734582732584 -17.87270646890832 24.003400033485264 -1.9699555251579937 -2.435698893535294
lfemur -45.45639081341683 9.81422787199488 -18.78489608476469
ltibia 49.81412463595807
lfoot -16.73829831156211 3.8331782486874424
ltoes -16.567327944413403
rfemur -59.95318289793882 -2.6205621483738746 22.34434295073953
rtibia 59.49630953207374
rfoot -22.14314693167579 -3.6898538521339184
rtoes -0.2867248445365522
lowerback 13.81847668752009 0.17057655764299742 0.3675738152630334
upperback 3.2285612501484064 0.26766559266247725 1.6891845925924311
thorax -2.04952351183801 0.12343658452834877 1.569241210809996
lowerneck -17.716599493498347 0.9503316105851944 -1.8521889923740007
upperneck 12.032142565352398 1.9245010190600227 -2.035216150612895
head 6.655436904884508 0.7584453755415577 -0.01815939180328635
lclavicle 5.765068493988578e-16 -3.097042444010003e-16
lhumerus -23.273955823248727 3.0872795754739206 85.35052467745425
lradius 18.003213643877018
lwrist 5.666308118890986
lhand -25.289157261937717 -4.298085201787595
lfingers 7.125019999999998
lthumb 0.945577051651678 25.34718205161729
rclavicle 5.755001861925344e-16 -3.1178605247033405e-16
rhumerus -21.711483283647702 -17.929768349148198 -81.3996135853262
rradius 20.52376168969293
rwrist 41.15861578992956
rhand -19.5000765922934 -25.575263121324255
rfingers 7.125019999999998
rthumb 6.63738790183214 -55.4471004852145
55
root 0.4689783551891177 16.073479277873663 -18.06666149948805 25.497179503880552 -2.095449476976315 -2.731275962955739
lfemur -48.32533080508391 9.928254018185651 -18.491259159537577
ltibia 54.17739843564242
lfoot -17.43695722369881 4.58137025725203
ltoes -17.519933681382124
rfemur -64.88845424793243 -2.513036566213275 22.765529392281117
rtibia 63.69932941433119
rfoot -22.904061823883012 -4.434584148564246
rtoes -1.276038448964857
lowerback 14.421558336284637 0.22078405429880008 0.4111086959221877
upperback 2.8955578987889616 0.34127647759000596 1.7642984207390533
thorax -2.9193874446168957 0.16557620884826105 1.5605536452749387
lowerneck -17.930110961594494 0.9657299688937978 -1.8409194164941625
upperneck 10.853576872302096 1.9454447424307881 -2.195429779500352
head 6.3107428814879265 0.773019685358153 -0.06681402068309189
lclavicle 5.766028854535599e-16 -3.0955720915675784e-16
lhumerus -22.4719905462404 5.038535205096602 84.57686084674292
lradius 17.345170904424496
lwrist 4.324613445650242
lhand -25.374973070300268 -4.418306698585502
lfingers 7.125019999999998
lthumb 0.8975471156474536 25.24178370630131
rclavicle 5.75474396919405e-16 -3.1182484652158565e-16
rhumerus -21.102233986611765 -17.748392437694676 -81.48044664418883
rradius 20.584910942352913
rwrist 41.20306139258963
rhand -19.77483819766222 -25.74982047810505
rfingers 7.125019999999998
rthumb 6.374807736811673 -55.608082143416546
56
root 0.46746498583096174 15.837439390185196 -18.237029021128123 27.15007350075578 -2.0917741789218307 -2.8558799983122993
lfemur -50.310428698349 9.913203136404269 -18.351820552233765
ltibia 58.19670091455545
lfoot -18.124413928797928 5.350662771138586
ltoes -18.226815236595414
rfemur -68.74470427232679 -2.4980930282498393 23.048088014528567
rtibia 67.47718846455183
rfoot -23.94471559082657 -5.328012159486711
rtoes -1.8928705521860776
lowerback 14.786512744656815 0.22693073538088357 0.35110808180263614
upperback 2.3793881692224472 0.35991003190145693 1.828857648737965
thorax -3.8308677680686993 0.17738399615245873 1.6250867312488677
lowerneck -18.148743055076697 0.9811680965537402 -1.8447714336213814
upperneck 9.823878542962712 1.9557482773996475 -2.271689071876388
head 6.012235612240259 0.7864036631212576 -0.08471662879611647
lclavicle 5.765097381985877e-16 -3.096981082552852e-16
lhumerus -21.533303033491357 6.616108765874132 84.05570238623626
lradius 16.794260132351386
lwrist 2.8527047114238817
lhand -25.507526058725734 -4.556156620740262
lfingers 7.125019999999998
lthumb 0.8157763112519374 25.127415482115385
rclavicle 5.754842682096345e-16 -3.1180915837655e-16
rhumerus -20.537389269387972 -17.27868388557805 -81.65781459412226
rradius 20.77225609927421
rwrist 40.90267309930208
rhand -20.064589777028488 -25.899812535010103
rfingers 7.125019999999998
rthumb 6.095556803236269 -55.77122341711559
